<?xml version="1.0" standalone="no"?><!DOCTYPE svg PUBLIC "-//W3C//DTD SVG 1.1//EN" "http://www.w3.org/Graphics/SVG/1.1/DTD/svg11.dtd"><svg t="1514377340443" class="icon" style="" viewBox="0 0 1024 1024" version="1.1" xmlns="http://www.w3.org/2000/svg" p-id="7479" xmlns:xlink="http://www.w3.org/1999/xlink" width="200" height="200"><defs><style type="text/css"></style></defs><path d="M511.424 589.397333a82.090667 82.090667 0 0 1-81.984-81.984 82.090667 82.090667 0 0 1 81.984-81.984 82.090667 82.090667 0 0 1 82.005333 81.984 82.090667 82.090667 0 0 1-82.005333 81.984M512 368.874667a138.688 138.688 0 0 0-138.538667 138.538666A138.688 138.688 0 0 0 512 645.952a138.688 138.688 0 0 0 138.538667-138.538667A138.688 138.688 0 0 0 512 368.874667m-28.714667 387.690666c-119.637333-7.104-218.24-78.506667-279.850666-137.173333a752.874667 752.874667 0 0 1-99.413334-116.544 753.194667 753.194667 0 0 1 99.413334-116.522667c61.632-58.666667 160.213333-130.069333 279.850666-137.173333 144.832-8.597333 290.901333 76.736 434.474667 253.696-143.573333 176.981333-289.664 262.314667-434.474667 253.717333m492.010667-272.277333c-160-203.648-326.805333-301.738667-495.68-291.562667-60.928 3.648-121.792 21.674667-180.885333 53.546667-46.592 25.088-92.181333 58.837333-135.509334 100.266667-73.322667 70.101333-114.730667 137.706667-116.437333 140.544-2.986667 4.906667-4.309333 10.389333-4.096 15.744-0.213333 5.376 1.066667 10.88 4.096 15.786666 1.706667 2.858667 43.114667 70.464 116.437333 140.565334 43.306667 41.429333 88.917333 75.157333 135.509334 100.266666 59.093333 31.872 119.957333 49.877333 180.885333 53.546667 7.936 0.490667 15.872 0.725333 23.808 0.725333 160.746667 0 319.402667-98.24 471.893333-292.288a28.16 28.16 0 0 0 5.994667-18.56 28.16 28.16 0 0 0-6.016-18.581333" p-id="7480"></path></svg>