<?xml version="1.0" standalone="no"?><!DOCTYPE svg PUBLIC "-//W3C//DTD SVG 1.1//EN" "http://www.w3.org/Graphics/SVG/1.1/DTD/svg11.dtd"><svg t="1514377429923" class="icon" style="" viewBox="0 0 1024 1024" version="1.1" xmlns="http://www.w3.org/2000/svg" p-id="9244" xmlns:xlink="http://www.w3.org/1999/xlink" width="200" height="200"><defs><style type="text/css"></style></defs><path d="M271.1 250.98c-35.7 0-64.7 29-64.7 64.7v305.6c0 35.7 29 64.7 64.7 64.7h167.2c6.3 0 12.3 2.5 16.6 7l66.9 69 68.4-69.2c4.3-4.4 10.3-6.9 16.5-6.9h146c35.7 0 64.7-29 64.7-64.7V315.68c0-35.7-29-64.7-64.7-64.7H271.1z m250.6 567.4h-0.1c-6.3 0-12.2-2.6-16.5-7l-76.6-79H271.1C209.8 732.38 160 682.58 160 621.28V315.68c0-61.3 49.9-111.1 111.1-111.1h481.6c61.3 0 111.1 49.8 111.1 111.1v305.6c0 61.3-49.8 111.1-111.1 111.1H616.5L538.2 811.58c-4.4 4.3-10.3 6.8-16.5 6.8z" p-id="9245"></path><path d="M346.5 454.9m-41.5 0a41.5 41.5 0 1 0 83 0 41.5 41.5 0 1 0-83 0Z" p-id="9246"></path><path d="M512.5 454.9m-41.5 0a41.5 41.5 0 1 0 83 0 41.5 41.5 0 1 0-83 0Z" p-id="9247"></path><path d="M678.5 454.9m-41.5 0a41.5 41.5 0 1 0 83 0 41.5 41.5 0 1 0-83 0Z" p-id="9248"></path></svg>