<?xml version="1.0" standalone="no"?><!DOCTYPE svg PUBLIC "-//W3C//DTD SVG 1.1//EN" "http://www.w3.org/Graphics/SVG/1.1/DTD/svg11.dtd"><svg t="1514377191513" class="icon" style="" viewBox="0 0 1024 1024" version="1.1" xmlns="http://www.w3.org/2000/svg" p-id="6092" xmlns:xlink="http://www.w3.org/1999/xlink" width="200" height="200"><defs><style type="text/css"></style></defs><path d="M522.332834 899.839189c-8.579399 0-17.258059 0-25.840528-8.582469L177.346639 589.416184c0 0-8.582469-8.582469-17.259082-17.259082-8.582469-8.581446-17.261129-17.258059-25.843598-34.565237-8.67559-17.260106-25.837458-34.472116-34.516118-51.730175-8.67866-17.259082-17.35425-34.56626-25.936719-60.310597-8.676613-25.8876-8.676613-43.147706-8.676613-69.036329 0-77.567633 17.259082-129.441071 60.356646-172.492586 43.196825-43.147706 103.555517-60.406788 181.175339-60.406788 17.257036 0 43.097564 0 60.259432 8.581446 25.936719 8.581446 43.195801 17.307178 60.359716 25.8876 17.160845 8.582469 34.613332 25.839505 51.776224 34.471093 17.259082 8.580422 25.841551 25.840528 34.516118 34.518165 8.582469-8.582469 25.841551-25.840528 34.424021-34.518165 17.35425-8.630564 26.030863-25.888624 51.77827-34.471093 17.257036-8.580422 43.195801-25.8876 60.356646-25.8876 17.162892 0 43.100634-8.581446 60.262502-8.581446 77.617775 0 138.071635 17.259082 181.170223 60.406788 43.195801 43.147706 60.359716 103.505375 60.359716 172.492586 0 77.617775-34.518165 155.236574-112.133893 232.804207L530.625708 891.159506C530.91428 891.25672 530.91428 899.839189 522.332834 899.839189z" p-id="6093" fill="#1296db"></path></svg>