<?xml version="1.0" standalone="no"?><!DOCTYPE svg PUBLIC "-//W3C//DTD SVG 1.1//EN" "http://www.w3.org/Graphics/SVG/1.1/DTD/svg11.dtd"><svg t="1514262605639" class="icon" style="" viewBox="0 0 1024 1024" version="1.1" xmlns="http://www.w3.org/2000/svg" p-id="3210" xmlns:xlink="http://www.w3.org/1999/xlink" width="200" height="200"><defs><style type="text/css"></style></defs><path d="M895.780571 681.106286v10.971428l10.825143 1.609143c11.483429-77.970286-4.681143-161.28-63.780571-240.859428-66.925714-90.112-83.675429-133.485714-92.16-203.483429l-1.170286-8.630857a43.666286 43.666286 0 0 0-28.525714-35.401143 46.006857 46.006857 0 0 0-45.056 7.899429c-56.466286 48.128-82.724571 107.300571-91.794286 182.125714l20.772572-3.510857c-53.394286-110.811429-64.438857-206.774857-54.930286-312.100572l1.316571-13.677714A43.300571 43.300571 0 0 0 533.942857 27.355429a45.787429 45.787429 0 0 0-42.203428-6.582858c-211.309714 73.435429-268.434286 273.408-229.302858 525.092572l17.846858-10.166857c-34.596571-28.672-68.242286-80.457143-85.796572-122.368a45.568 45.568 0 0 0-41.984-27.062857 44.617143 44.617143 0 0 0-41.472 28.964571C96.329143 456.192 81.481143 530.870857 84.48 612.937143c4.973714 136.484571 58.88 253.147429 177.444571 333.385143 85.211429 51.053714 171.008 76.873143 255.634286 76.873143 198.509714-8.557714 325.705143-101.668571 378.88-285.769143a229.668571 229.668571 0 0 0 10.166857-43.300572l-10.825143-12.946285z m-585.142857 191.926857c-88.722286-60.123429-135.314286-149.138286-138.532571-265.216a497.371429 497.371429 0 0 1 5.12-83.894857l-19.894857 4.681143c43.154286 63.414857 94.354286 106.788571 153.453714 117.467428a45.787429 45.787429 0 0 0 39.862857-12.434286 43.227429 43.227429 0 0 0 11.922286-39.497142L361.325714 588.8c-45.056-203.922286-24.868571-384.731429 113.444572-464.310857l-16.457143-9.874286c-5.12 153.965714 37.229714 292.278857 129.097143 422.034286 11.044571 15.433143 31.305143 22.308571 49.883428 16.822857a44.032 44.032 0 0 0 31.524572-41.837714v-8.777143c0-94.646857 4.315429-133.046857 25.673143-174.006857L674.377143 326.948571c14.116571 49.517714 42.642286 105.252571 96.182857 177.298286 42.422857 57.197714 55.003429 116.443429 48.274286 172.032a479.817143 479.817143 0 0 1-7.314286 31.451429 519.387429 519.387429 0 0 1-23.698286 70.436571c-13.238857 31.085714-28.525714 56.246857-45.714285 73.435429-5.997714 5.046857-13.677714 11.044571-22.016 17.042285a85.357714 85.357714 0 0 0-15.652572 10.898286 339.382857 339.382857 0 0 1-186.221714 56.32c-68.022857 0-137.947429-21.138286-207.506286-62.756571z" fill="#FF4200" p-id="3211"></path></svg>