<?xml version="1.0" standalone="no"?><!DOCTYPE svg PUBLIC "-//W3C//DTD SVG 1.1//EN" "http://www.w3.org/Graphics/SVG/1.1/DTD/svg11.dtd"><svg t="1514373757181" class="icon" style="" viewBox="0 0 1024 1024" version="1.1" xmlns="http://www.w3.org/2000/svg" p-id="4604" xmlns:xlink="http://www.w3.org/1999/xlink" width="200" height="200"><defs><style type="text/css"></style></defs><path d="M485.7088 844.8 555.9808 844.8 518.3488 795.4688Z" p-id="4605" fill="#bfbfbf"></path><path d="M298.88 661.6064c13.3632 0 26.5472 7.6288 37.12 21.4784l88.1408 115.5584 44.8768-67.7888-71.9872-94.3616c-25.0624-32.8448-60.8256-51.6864-98.176-51.6864s-73.1136 18.816-98.176 51.6864l-121.8304 159.6928c6.7584 27.1616 30.7456 47.3856 59.6736 48.4096l123.2128-161.5104C272.3328 669.2352 285.4912 661.6064 298.88 661.6064z" p-id="4606" fill="#bfbfbf"></path><path d="M947.2 780.8c0 35.3024-28.7232 64-64 64L555.9808 844.8l58.5984 76.8L883.2 921.6c63.7184 0 117.6064-42.5728 134.912-100.7616L947.2 713.7024 947.2 780.8z" p-id="4607" fill="#bfbfbf"></path><path d="M434.8928 921.6 517.9648 921.6 473.472 863.3088Z" p-id="4608" fill="#bfbfbf"></path><path d="M473.472 863.3088 517.9648 921.6 614.5536 921.6 555.9808 844.8 485.7088 844.8Z" p-id="4609" fill="#bfbfbf"></path><path d="M342.784 921.6l50.816-76.8L140.8 844.8c-0.768 0-1.4848-0.2048-2.2528-0.2304l-50.7648 66.5856C104.1408 917.8624 122.0352 921.6 140.8 921.6L342.784 921.6z" p-id="4610" fill="#bfbfbf"></path><path d="M76.8 780.8l0-537.6C76.8 207.8976 105.5232 179.2 140.8 179.2l742.4 0C918.4768 179.2 947.2 207.8976 947.2 243.2l0 331.2896 76.8 116.0448L1024 243.2C1024 165.5808 960.8448 102.4 883.2 102.4l-742.4 0C63.1552 102.4 0 165.5808 0 243.2l0 537.6c0 31.0528 10.2144 59.6736 27.3152 82.9696l51.5584-67.6096C77.6448 791.2192 76.8 786.1248 76.8 780.8z" p-id="4611" fill="#bfbfbf"></path><path d="M87.7824 911.1552l50.7648-66.5856c-28.928-1.024-52.9152-21.248-59.6736-48.4096l-51.5584 67.6096C42.624 884.6848 63.4624 901.2224 87.7824 911.1552z" p-id="4612" fill="#bfbfbf"></path><path d="M759.8336 374.7072c-35.0208 0-68.096 19.6096-90.7008 53.7856l-200.0896 302.3616 49.3312 64.64 214.8352-324.608c8.1408-12.3136 17.8688-19.3792 26.6752-19.3792s18.5088 7.04 26.6752 19.3792L947.2 713.7024l0-139.2128-96.64-146.0224C827.9296 394.2912 794.8544 374.7072 759.8336 374.7072z" p-id="4613" fill="#bfbfbf"></path><path d="M485.7088 844.8 518.3488 795.4688 469.0176 730.8288 424.1408 798.6176 459.3664 844.8Z" p-id="4614" fill="#bfbfbf"></path><path d="M459.3664 844.8 393.6 844.8 342.784 921.6 434.8928 921.6 473.472 863.3088Z" p-id="4615" fill="#bfbfbf"></path><path d="M473.472 863.3088 485.7088 844.8 459.3664 844.8Z" p-id="4616" fill="#bfbfbf"></path><path d="M947.2 713.7024l70.912 107.1616C1021.9008 808.1408 1024 794.7264 1024 780.8l0-90.24-76.8-116.0448L947.2 713.7024z" p-id="4617" fill="#bfbfbf"></path><path d="M404.8128 528c-76.7488 0-139.2128-62.4384-139.2128-139.2128s62.4384-139.2128 139.2128-139.2128 139.2128 62.4384 139.2128 139.2128S481.5616 528 404.8128 528zM404.8128 326.4c-34.4064 0-62.4128 28.0064-62.4128 62.4128s27.9808 62.4128 62.4128 62.4128 62.4128-28.0064 62.4128-62.4128S439.2192 326.4 404.8128 326.4z" p-id="4618" fill="#bfbfbf"></path></svg>