<?xml version="1.0" standalone="no"?><!DOCTYPE svg PUBLIC "-//W3C//DTD SVG 1.1//EN" "http://www.w3.org/Graphics/SVG/1.1/DTD/svg11.dtd"><svg t="1513859441399" class="icon" style="" viewBox="0 0 1024 1024" version="1.1" xmlns="http://www.w3.org/2000/svg" p-id="1704" xmlns:xlink="http://www.w3.org/1999/xlink" width="200" height="200"><defs><style type="text/css"></style></defs><path d="M572.504514 333.958024l-52.251038 54.447053-47.159066 48.992831c-14.134929 14.85022-53.825906 55.066153-63.310931 65.163115-9.479909 10.092869-15.541975 16.508999-18.088984 19.140942-6.056949 6.320962-10.712993 12.028964-13.875009 17.210987-3.25002 5.097088-6.14393 10.807137-8.689916 17.037025-2.111081 4.03592-4.916986 11.414981-8.347109 22.127973-3.510964 10.799974-7.020904 22.567995-10.712993 35.299971-3.684926 12.735046-7.107885 25.111934-10.269901 37.059034-3.338025 11.850909-5.360078 20.898982-6.238075 27.220968-1.75497 11.680017-0.617054 20.018939 3.248997 24.853038 3.866051 5.003967 11.589966 6.667863 23.180955 5.358031 5.619998-0.876973 14.142092-2.818185 25.464975-5.979178 11.416004-3.155876 23.536043-6.757914 36.184107-11.060917 12.641925-4.301979 24.847921-8.606005 36.525891-13.085016 11.68411-4.480035 20.461007-8.336876 26.436092-11.411911 6.056949-2.720971 11.851932-6.328126 17.472953-10.714016 5.53404-4.569062 10.538007-8.782014 14.839986-12.825097 1.75497-1.396813 7.114025-6.756891 16.159028-16.243963 9.045003-9.305947 20.461007-21.340027 34.242895-35.913954 13.700023-14.576997 57.077973-58.482973 74.291007-75.958996l51.632961-54.445006 134.797056-142.520971-121.712039-123.198903L572.504514 333.958024 572.504514 333.958024 572.504514 333.958024zM868.517321 411.411047l0 201.086831 0 125.394918 0-0.786922 0 26.606984c0 68.75799-56.108902 124.779911-124.865869 124.779911L592.608388 888.49277l-0.086981 0L431.650509 888.49277l0 0L280.52251 888.49277c-68.759013 0-124.779911-56.020898-124.779911-124.779911l0-28.010961 0-0.264013L155.742599 411.498028 155.742599 284.347117l0 1.840928 0-25.816992c0-68.759013 56.020898-124.779911 124.779911-124.779911l151.129023 0 91.234911 0 41.800012 0 21.337981 0 84.473927-71.218018-27.922956 0L642.575406 64.287165 280.52251 64.287165c-104.935957 0-190.904934 82.894965-195.822944 186.601932l-0.260943 0 0 9.482979 0 1.664919 0 0 0 501.67791 0 9.397021 0.174985 0c5.004991 103.705943 90.972944 186.602955 195.820897 186.602955l3.604084 0 456.094736 0 3.430122 0c104.935957 0 190.905958-82.897012 195.822944-186.602955l0.173962 0 0-9.397021L939.560354 341.423043 868.517321 411.411047 868.517321 411.411047 868.517321 411.411047zM851.48132 92.471065c-4.649903-0.877997-9.131985-1.311879-13.344936-1.226944l1.840928 0C843.930343 91.419106 847.709413 91.775216 851.48132 92.471065L851.48132 92.471065 851.48132 92.471065zM928.492274 183.272094c0.531096-12.55699-2.718925-26.431999-9.739828-39.60195-4.832052-9.046027-11.33107-17.654079-19.410072-25.554002-14.404058-13.959943-31.528064-22.74298-47.861054-25.645077-3.771907-0.696872-7.550976-1.051959-11.504008-1.226944l-1.840928 0c-7.203052-0.084934-14.57802 1.054005-21.955034 3.423983-7.898901 2.459005-15.803941 6.847965-23.354917 12.910031-5.794983 5.094018-13.171997 11.851932-21.955034 20.546965-8.958022 8.602935-16.594957 16.07307-23.006993 22.215978l121.097032 123.114992c3.770883-3.341095 7.899924-7.198959 12.20702-11.680017 3.597945-3.954055 8.072863-8.337899 13.171997-13.431917 5.177929-5.004991 10.79895-10.894118 17.122983-17.566074 5.969968-6.67298 10.269901-13.694907 12.990872-20.896936 2.725064-7.287987 3.952009-14.57802 3.952009-21.868053C928.492274 186.432063 928.492274 184.851055 928.492274 183.272094L928.492274 183.272094 928.492274 183.272094zM928.492274 183.272094" p-id="1705" fill="#1296db"></path></svg>