<?xml version="1.0" standalone="no"?><!DOCTYPE svg PUBLIC "-//W3C//DTD SVG 1.1//EN" "http://www.w3.org/Graphics/SVG/1.1/DTD/svg11.dtd"><svg t="1513858752301" class="icon" style="" viewBox="0 0 1024 1024" version="1.1" xmlns="http://www.w3.org/2000/svg" p-id="1004" xmlns:xlink="http://www.w3.org/1999/xlink" width="200" height="200"><defs><style type="text/css"></style></defs><path d="M1005.341 965.25l-150.018-259.843c92.163-60.001 153.109-163.922 153.109-282.093 0-185.78-150.608-336.38-336.389-336.38s-336.39 150.601-336.39 336.38 150.608 336.383 336.389 336.383c48.384 0 94.371-10.235 135.943-28.624l150.745 261.084c7.431 12.873 23.889 17.281 36.759 9.849 12.874-7.43 17.284-23.889 9.852-36.755zM672.042 705.877c-156.058 0-282.566-126.509-282.566-282.563s126.509-282.561 282.566-282.561 282.569 126.506 282.569 282.561-126.511 282.563-282.569 282.563z" p-id="1005" fill="#707070"></path><path d="M28.491 167.664h292.23c8.709 0 15.772-7.059 15.772-15.772v-22.283c0-8.711-7.061-15.772-15.772-15.772h-292.23c-8.709 0-15.772 7.059-15.772 15.772v22.283c0 8.711 7.061 15.772 15.772 15.772z" p-id="1006" fill="#707070"></path><path d="M320.726 530.957h-292.239c-8.707 0-15.767 7.059-15.767 15.772v22.283c0 8.705 7.059 15.765 15.767 15.765h292.239c8.707 0 15.767-7.059 15.767-15.765v-22.283c0-8.711-7.059-15.772-15.767-15.772z" p-id="1007" fill="#707070"></path><path d="M320.726 921.158h-292.239c-8.707 0-15.767 7.059-15.767 15.772v22.283c0 8.709 7.059 15.772 15.767 15.772h292.239c8.707 0 15.767-7.061 15.767-15.772v-22.283c0-8.711-7.059-15.772-15.767-15.772z" p-id="1008" fill="#707070"></path></svg>